<svg xmlns="http://www.w3.org/2000/svg" viewBox="0 0 800 800" fill="none">
<defs>
<linearGradient id="chip" x1="0" y1="0" x2="1" y2="1"><stop offset="0" stop-color="#2e2e2e"/><stop offset="1" stop-color="#0c0c0c"/></linearGradient>
<radialGradient id="vig2" cx=".5" cy=".5" r=".7"><stop offset=".45" stop-color="#000" stop-opacity="0"/><stop offset="1" stop-color="#000" stop-opacity=".75"/></radialGradient>
</defs>
<rect width="800" height="800" fill="#0f0f0f"/>
<rect x="0" y="0" width="800" height="1" fill="#fff" opacity=".04"/>
<rect x="0" y="32" width="800" height="1" fill="#fff" opacity=".04"/>
<rect x="0" y="64" width="800" height="1" fill="#fff" opacity=".04"/>
<rect x="0" y="96" width="800" height="1" fill="#fff" opacity=".04"/>
<rect x="0" y="128" width="800" height="1" fill="#fff" opacity=".04"/>
<rect x="0" y="160" width="800" height="1" fill="#fff" opacity=".04"/>
<rect x="0" y="192" width="800" height="1" fill="#fff" opacity=".04"/>
<rect x="0" y="224" width="800" height="1" fill="#fff" opacity=".04"/>
<rect x="0" y="256" width="800" height="1" fill="#fff" opacity=".04"/>
<rect x="0" y="288" width="800" height="1" fill="#fff" opacity=".04"/>
<rect x="0" y="320" width="800" height="1" fill="#fff" opacity=".04"/>
<rect x="0" y="352" width="800" height="1" fill="#fff" opacity=".04"/>
<rect x="0" y="384" width="800" height="1" fill="#fff" opacity=".04"/>
<rect x="0" y="416" width="800" height="1" fill="#fff" opacity=".04"/>
<rect x="0" y="448" width="800" height="1" fill="#fff" opacity=".04"/>
<rect x="0" y="480" width="800" height="1" fill="#fff" opacity=".04"/>
<rect x="0" y="512" width="800" height="1" fill="#fff" opacity=".04"/>
<rect x="0" y="544" width="800" height="1" fill="#fff" opacity=".04"/>
<rect x="0" y="576" width="800" height="1" fill="#fff" opacity=".04"/>
<rect x="0" y="608" width="800" height="1" fill="#fff" opacity=".04"/>
<rect x="0" y="640" width="800" height="1" fill="#fff" opacity=".04"/>
<rect x="0" y="672" width="800" height="1" fill="#fff" opacity=".04"/>
<rect x="0" y="704" width="800" height="1" fill="#fff" opacity=".04"/>
<rect x="0" y="736" width="800" height="1" fill="#fff" opacity=".04"/>
<rect x="0" y="768" width="800" height="1" fill="#fff" opacity=".04"/>
<path d="M351 174 v181 h-40" stroke="#8a8a8a" stroke-opacity=".35" stroke-width="2"/>
<circle cx="351" cy="174" r="4" fill="#bdbdbd" opacity=".6"/>
<path d="M94 568 h104 v40" stroke="#8a8a8a" stroke-opacity=".35" stroke-width="2"/>
<circle cx="94" cy="568" r="4" fill="#bdbdbd" opacity=".6"/>
<path d="M616 79 v209 h-40" stroke="#8a8a8a" stroke-opacity=".35" stroke-width="2"/>
<circle cx="616" cy="79" r="4" fill="#bdbdbd" opacity=".6"/>
<path d="M58 108 h191 v40" stroke="#8a8a8a" stroke-opacity=".35" stroke-width="2"/>
<circle cx="58" cy="108" r="4" fill="#bdbdbd" opacity=".6"/>
<path d="M91 266 v103 h40" stroke="#8a8a8a" stroke-opacity=".35" stroke-width="2"/>
<circle cx="91" cy="266" r="4" fill="#bdbdbd" opacity=".6"/>
<path d="M80 599 h111 v-40" stroke="#8a8a8a" stroke-opacity=".35" stroke-width="2"/>
<circle cx="80" cy="599" r="4" fill="#bdbdbd" opacity=".6"/>
<path d="M665 662 v229 h-40" stroke="#8a8a8a" stroke-opacity=".35" stroke-width="2"/>
<circle cx="665" cy="662" r="4" fill="#bdbdbd" opacity=".6"/>
<path d="M610 619 h181 v-40" stroke="#8a8a8a" stroke-opacity=".35" stroke-width="2"/>
<circle cx="610" cy="619" r="4" fill="#bdbdbd" opacity=".6"/>
<path d="M246 67 v222 h-40" stroke="#8a8a8a" stroke-opacity=".35" stroke-width="2"/>
<circle cx="246" cy="67" r="4" fill="#bdbdbd" opacity=".6"/>
<path d="M316 449 h116 v-40" stroke="#8a8a8a" stroke-opacity=".35" stroke-width="2"/>
<circle cx="316" cy="449" r="4" fill="#bdbdbd" opacity=".6"/>
<path d="M604 335 v223 h-40" stroke="#8a8a8a" stroke-opacity=".35" stroke-width="2"/>
<circle cx="604" cy="335" r="4" fill="#bdbdbd" opacity=".6"/>
<path d="M125 615 h226 v-40" stroke="#8a8a8a" stroke-opacity=".35" stroke-width="2"/>
<circle cx="125" cy="615" r="4" fill="#bdbdbd" opacity=".6"/>
<path d="M401 119 v220 h-40" stroke="#8a8a8a" stroke-opacity=".35" stroke-width="2"/>
<circle cx="401" cy="119" r="4" fill="#bdbdbd" opacity=".6"/>
<path d="M597 81 h238 v-40" stroke="#8a8a8a" stroke-opacity=".35" stroke-width="2"/>
<circle cx="597" cy="81" r="4" fill="#bdbdbd" opacity=".6"/>
<path d="M528 716 v216 h40" stroke="#8a8a8a" stroke-opacity=".35" stroke-width="2"/>
<circle cx="528" cy="716" r="4" fill="#bdbdbd" opacity=".6"/>
<path d="M341 496 h229 v40" stroke="#8a8a8a" stroke-opacity=".35" stroke-width="2"/>
<circle cx="341" cy="496" r="4" fill="#bdbdbd" opacity=".6"/>
<path d="M390 326 v143 h-40" stroke="#8a8a8a" stroke-opacity=".35" stroke-width="2"/>
<circle cx="390" cy="326" r="4" fill="#bdbdbd" opacity=".6"/>
<path d="M735 269 h100 v40" stroke="#8a8a8a" stroke-opacity=".35" stroke-width="2"/>
<circle cx="735" cy="269" r="4" fill="#bdbdbd" opacity=".6"/>
<path d="M557 526 v167 h40" stroke="#8a8a8a" stroke-opacity=".35" stroke-width="2"/>
<circle cx="557" cy="526" r="4" fill="#bdbdbd" opacity=".6"/>
<path d="M314 643 h98 v-40" stroke="#8a8a8a" stroke-opacity=".35" stroke-width="2"/>
<circle cx="314" cy="643" r="4" fill="#bdbdbd" opacity=".6"/>
<path d="M544 448 v122 h40" stroke="#8a8a8a" stroke-opacity=".35" stroke-width="2"/>
<circle cx="544" cy="448" r="4" fill="#bdbdbd" opacity=".6"/>
<path d="M175 520 h187 v-40" stroke="#8a8a8a" stroke-opacity=".35" stroke-width="2"/>
<circle cx="175" cy="520" r="4" fill="#bdbdbd" opacity=".6"/>
<path d="M704 99 v222 h40" stroke="#8a8a8a" stroke-opacity=".35" stroke-width="2"/>
<circle cx="704" cy="99" r="4" fill="#bdbdbd" opacity=".6"/>
<path d="M368 731 h169 v40" stroke="#8a8a8a" stroke-opacity=".35" stroke-width="2"/>
<circle cx="368" cy="731" r="4" fill="#bdbdbd" opacity=".6"/>
<path d="M613 487 v97 h-40" stroke="#8a8a8a" stroke-opacity=".35" stroke-width="2"/>
<circle cx="613" cy="487" r="4" fill="#bdbdbd" opacity=".6"/>
<path d="M296 505 h258 v-40" stroke="#8a8a8a" stroke-opacity=".35" stroke-width="2"/>
<circle cx="296" cy="505" r="4" fill="#bdbdbd" opacity=".6"/>
<rect x="250" y="270" width="300" height="260" rx="10" fill="#1c1c1c" stroke="#555" stroke-width="2"/>
<rect x="280" y="300" width="240" height="200" rx="4" fill="url(#chip)"/>
<rect x="262" y="252" width="8" height="18" fill="#b8b8b8"/><rect x="262" y="530" width="8" height="18" fill="#b8b8b8"/>
<rect x="232" y="282" width="18" height="8" fill="#b8b8b8"/><rect x="550" y="282" width="18" height="8" fill="#b8b8b8"/>
<rect x="285" y="252" width="8" height="18" fill="#b8b8b8"/><rect x="285" y="530" width="8" height="18" fill="#b8b8b8"/>
<rect x="232" y="302" width="18" height="8" fill="#b8b8b8"/><rect x="550" y="302" width="18" height="8" fill="#b8b8b8"/>
<rect x="308" y="252" width="8" height="18" fill="#b8b8b8"/><rect x="308" y="530" width="8" height="18" fill="#b8b8b8"/>
<rect x="232" y="322" width="18" height="8" fill="#b8b8b8"/><rect x="550" y="322" width="18" height="8" fill="#b8b8b8"/>
<rect x="331" y="252" width="8" height="18" fill="#b8b8b8"/><rect x="331" y="530" width="8" height="18" fill="#b8b8b8"/>
<rect x="232" y="342" width="18" height="8" fill="#b8b8b8"/><rect x="550" y="342" width="18" height="8" fill="#b8b8b8"/>
<rect x="354" y="252" width="8" height="18" fill="#b8b8b8"/><rect x="354" y="530" width="8" height="18" fill="#b8b8b8"/>
<rect x="232" y="362" width="18" height="8" fill="#b8b8b8"/><rect x="550" y="362" width="18" height="8" fill="#b8b8b8"/>
<rect x="377" y="252" width="8" height="18" fill="#b8b8b8"/><rect x="377" y="530" width="8" height="18" fill="#b8b8b8"/>
<rect x="232" y="382" width="18" height="8" fill="#b8b8b8"/><rect x="550" y="382" width="18" height="8" fill="#b8b8b8"/>
<rect x="400" y="252" width="8" height="18" fill="#b8b8b8"/><rect x="400" y="530" width="8" height="18" fill="#b8b8b8"/>
<rect x="232" y="402" width="18" height="8" fill="#b8b8b8"/><rect x="550" y="402" width="18" height="8" fill="#b8b8b8"/>
<rect x="423" y="252" width="8" height="18" fill="#b8b8b8"/><rect x="423" y="530" width="8" height="18" fill="#b8b8b8"/>
<rect x="232" y="422" width="18" height="8" fill="#b8b8b8"/><rect x="550" y="422" width="18" height="8" fill="#b8b8b8"/>
<rect x="446" y="252" width="8" height="18" fill="#b8b8b8"/><rect x="446" y="530" width="8" height="18" fill="#b8b8b8"/>
<rect x="232" y="442" width="18" height="8" fill="#b8b8b8"/><rect x="550" y="442" width="18" height="8" fill="#b8b8b8"/>
<rect x="469" y="252" width="8" height="18" fill="#b8b8b8"/><rect x="469" y="530" width="8" height="18" fill="#b8b8b8"/>
<rect x="232" y="462" width="18" height="8" fill="#b8b8b8"/><rect x="550" y="462" width="18" height="8" fill="#b8b8b8"/>
<rect x="492" y="252" width="8" height="18" fill="#b8b8b8"/><rect x="492" y="530" width="8" height="18" fill="#b8b8b8"/>
<rect x="232" y="482" width="18" height="8" fill="#b8b8b8"/><rect x="550" y="482" width="18" height="8" fill="#b8b8b8"/>
<rect x="515" y="252" width="8" height="18" fill="#b8b8b8"/><rect x="515" y="530" width="8" height="18" fill="#b8b8b8"/>
<rect x="232" y="502" width="18" height="8" fill="#b8b8b8"/><rect x="550" y="502" width="18" height="8" fill="#b8b8b8"/>
<path d="M290 420 L330 420 L350 360 L380 470 L410 390 L430 420 L470 420 L490 380 L510 420" stroke="#F7CF49" stroke-width="4" stroke-linejoin="round"/>
<rect width="800" height="800" fill="url(#vig2)"/>
</svg>
