<svg xmlns="http://www.w3.org/2000/svg" viewBox="0 0 800 800" fill="none">
<defs>
<linearGradient id="metalH" x1="0" x2="1" y1="0" y2="0">
  <stop offset="0" stop-color="#1a1a1a"/><stop offset=".18" stop-color="#6b6b6b"/>
  <stop offset=".34" stop-color="#e9e9e9"/><stop offset=".5" stop-color="#8d8d8d"/>
  <stop offset=".72" stop-color="#2b2b2b"/><stop offset="1" stop-color="#0d0d0d"/>
</linearGradient>
<linearGradient id="cyl" x1="0" x2="1" y1="0" y2="0">
  <stop offset="0" stop-color="#0a0a0a"/><stop offset=".45" stop-color="#2c2c2c"/>
  <stop offset=".62" stop-color="#3a3a3a"/><stop offset=".85" stop-color="#151515"/><stop offset="1" stop-color="#070707"/>
</linearGradient>
<linearGradient id="brass" x1="0" x2="1" y1="0" y2="0">
  <stop offset="0" stop-color="#4a3418"/><stop offset=".4" stop-color="#d9a864"/>
  <stop offset=".6" stop-color="#f3d49c"/><stop offset="1" stop-color="#5a3f1c"/>
</linearGradient>
<linearGradient id="glass" x1="0" x2="0" y1="0" y2="1">
  <stop offset="0" stop-color="#ffffff" stop-opacity=".30"/><stop offset=".5" stop-color="#ffffff" stop-opacity=".10"/>
  <stop offset="1" stop-color="#ffffff" stop-opacity=".22"/>
</linearGradient>
<linearGradient id="fadeDown" x1="0" x2="0" y1="0" y2="1">
  <stop offset="0" stop-color="#000" stop-opacity="0"/><stop offset=".7" stop-color="#000" stop-opacity=".15"/>
  <stop offset="1" stop-color="#000" stop-opacity=".6"/>
</linearGradient>

<radialGradient id="rimG"><stop offset=".85" stop-color="#3a3a3a"/><stop offset=".93" stop-color="#bdbdbd"/><stop offset="1" stop-color="#2a2a2a"/></radialGradient>
<radialGradient id="hubG"><stop offset="0" stop-color="#bbb"/><stop offset="1" stop-color="#222"/></radialGradient>
<linearGradient id="brassR" x1="0" x2="1"><stop offset="0" stop-color="#6d4c20"/><stop offset=".5" stop-color="#e4b777"/><stop offset="1" stop-color="#6d4c20"/></linearGradient>
<linearGradient id="shade" x1="0" y1="0" x2="1" y2="1"><stop offset="0" stop-color="#fff" stop-opacity=".18"/><stop offset=".5" stop-color="#fff" stop-opacity="0"/><stop offset="1" stop-color="#000" stop-opacity=".55"/></linearGradient>
</defs>
<circle cx="400" cy="400" r="392" fill="url(#rimG)"/>
<circle cx="400" cy="400" r="372" fill="#101010"/>
<rect x="378" y="36" width="44" height="60" rx="3" fill="#5c5c5c" transform="rotate(0.0 400 400)"/>
<rect x="380" y="38" width="40" height="6" fill="#d8d8d8" opacity=".6" transform="rotate(0.0 400 400)"/>
<rect x="378" y="36" width="44" height="46" rx="3" fill="#8a8a8a" transform="rotate(12.857142857142858 400 400)"/>
<rect x="380" y="38" width="40" height="6" fill="#d8d8d8" opacity=".6" transform="rotate(12.857142857142858 400 400)"/>
<rect x="378" y="36" width="44" height="46" rx="3" fill="#5c5c5c" transform="rotate(25.714285714285715 400 400)"/>
<rect x="380" y="38" width="40" height="6" fill="#d8d8d8" opacity=".6" transform="rotate(25.714285714285715 400 400)"/>
<rect x="378" y="36" width="44" height="60" rx="3" fill="#8a8a8a" transform="rotate(38.57142857142857 400 400)"/>
<rect x="380" y="38" width="40" height="6" fill="#d8d8d8" opacity=".6" transform="rotate(38.57142857142857 400 400)"/>
<rect x="378" y="36" width="44" height="46" rx="3" fill="#5c5c5c" transform="rotate(51.42857142857143 400 400)"/>
<rect x="380" y="38" width="40" height="6" fill="#d8d8d8" opacity=".6" transform="rotate(51.42857142857143 400 400)"/>
<rect x="378" y="36" width="44" height="46" rx="3" fill="#8a8a8a" transform="rotate(64.28571428571429 400 400)"/>
<rect x="380" y="38" width="40" height="6" fill="#d8d8d8" opacity=".6" transform="rotate(64.28571428571429 400 400)"/>
<rect x="378" y="36" width="44" height="60" rx="3" fill="#5c5c5c" transform="rotate(77.14285714285714 400 400)"/>
<rect x="380" y="38" width="40" height="6" fill="#d8d8d8" opacity=".6" transform="rotate(77.14285714285714 400 400)"/>
<rect x="378" y="36" width="44" height="46" rx="3" fill="#8a8a8a" transform="rotate(90.0 400 400)"/>
<rect x="380" y="38" width="40" height="6" fill="#d8d8d8" opacity=".6" transform="rotate(90.0 400 400)"/>
<rect x="378" y="36" width="44" height="46" rx="3" fill="#5c5c5c" transform="rotate(102.85714285714286 400 400)"/>
<rect x="380" y="38" width="40" height="6" fill="#d8d8d8" opacity=".6" transform="rotate(102.85714285714286 400 400)"/>
<rect x="378" y="36" width="44" height="60" rx="3" fill="#8a8a8a" transform="rotate(115.71428571428571 400 400)"/>
<rect x="380" y="38" width="40" height="6" fill="#d8d8d8" opacity=".6" transform="rotate(115.71428571428571 400 400)"/>
<rect x="378" y="36" width="44" height="46" rx="3" fill="#5c5c5c" transform="rotate(128.57142857142858 400 400)"/>
<rect x="380" y="38" width="40" height="6" fill="#d8d8d8" opacity=".6" transform="rotate(128.57142857142858 400 400)"/>
<rect x="378" y="36" width="44" height="46" rx="3" fill="#8a8a8a" transform="rotate(141.42857142857142 400 400)"/>
<rect x="380" y="38" width="40" height="6" fill="#d8d8d8" opacity=".6" transform="rotate(141.42857142857142 400 400)"/>
<rect x="378" y="36" width="44" height="60" rx="3" fill="#5c5c5c" transform="rotate(154.28571428571428 400 400)"/>
<rect x="380" y="38" width="40" height="6" fill="#d8d8d8" opacity=".6" transform="rotate(154.28571428571428 400 400)"/>
<rect x="378" y="36" width="44" height="46" rx="3" fill="#8a8a8a" transform="rotate(167.14285714285714 400 400)"/>
<rect x="380" y="38" width="40" height="6" fill="#d8d8d8" opacity=".6" transform="rotate(167.14285714285714 400 400)"/>
<rect x="378" y="36" width="44" height="46" rx="3" fill="#5c5c5c" transform="rotate(180.0 400 400)"/>
<rect x="380" y="38" width="40" height="6" fill="#d8d8d8" opacity=".6" transform="rotate(180.0 400 400)"/>
<rect x="378" y="36" width="44" height="60" rx="3" fill="#8a8a8a" transform="rotate(192.85714285714286 400 400)"/>
<rect x="380" y="38" width="40" height="6" fill="#d8d8d8" opacity=".6" transform="rotate(192.85714285714286 400 400)"/>
<rect x="378" y="36" width="44" height="46" rx="3" fill="#5c5c5c" transform="rotate(205.71428571428572 400 400)"/>
<rect x="380" y="38" width="40" height="6" fill="#d8d8d8" opacity=".6" transform="rotate(205.71428571428572 400 400)"/>
<rect x="378" y="36" width="44" height="46" rx="3" fill="#8a8a8a" transform="rotate(218.57142857142858 400 400)"/>
<rect x="380" y="38" width="40" height="6" fill="#d8d8d8" opacity=".6" transform="rotate(218.57142857142858 400 400)"/>
<rect x="378" y="36" width="44" height="60" rx="3" fill="#5c5c5c" transform="rotate(231.42857142857142 400 400)"/>
<rect x="380" y="38" width="40" height="6" fill="#d8d8d8" opacity=".6" transform="rotate(231.42857142857142 400 400)"/>
<rect x="378" y="36" width="44" height="46" rx="3" fill="#8a8a8a" transform="rotate(244.28571428571428 400 400)"/>
<rect x="380" y="38" width="40" height="6" fill="#d8d8d8" opacity=".6" transform="rotate(244.28571428571428 400 400)"/>
<rect x="378" y="36" width="44" height="46" rx="3" fill="#5c5c5c" transform="rotate(257.14285714285717 400 400)"/>
<rect x="380" y="38" width="40" height="6" fill="#d8d8d8" opacity=".6" transform="rotate(257.14285714285717 400 400)"/>
<rect x="378" y="36" width="44" height="60" rx="3" fill="#8a8a8a" transform="rotate(270.0 400 400)"/>
<rect x="380" y="38" width="40" height="6" fill="#d8d8d8" opacity=".6" transform="rotate(270.0 400 400)"/>
<rect x="378" y="36" width="44" height="46" rx="3" fill="#5c5c5c" transform="rotate(282.85714285714283 400 400)"/>
<rect x="380" y="38" width="40" height="6" fill="#d8d8d8" opacity=".6" transform="rotate(282.85714285714283 400 400)"/>
<rect x="378" y="36" width="44" height="46" rx="3" fill="#8a8a8a" transform="rotate(295.7142857142857 400 400)"/>
<rect x="380" y="38" width="40" height="6" fill="#d8d8d8" opacity=".6" transform="rotate(295.7142857142857 400 400)"/>
<rect x="378" y="36" width="44" height="60" rx="3" fill="#5c5c5c" transform="rotate(308.57142857142856 400 400)"/>
<rect x="380" y="38" width="40" height="6" fill="#d8d8d8" opacity=".6" transform="rotate(308.57142857142856 400 400)"/>
<rect x="378" y="36" width="44" height="46" rx="3" fill="#8a8a8a" transform="rotate(321.42857142857144 400 400)"/>
<rect x="380" y="38" width="40" height="6" fill="#d8d8d8" opacity=".6" transform="rotate(321.42857142857144 400 400)"/>
<rect x="378" y="36" width="44" height="46" rx="3" fill="#5c5c5c" transform="rotate(334.2857142857143 400 400)"/>
<rect x="380" y="38" width="40" height="6" fill="#d8d8d8" opacity=".6" transform="rotate(334.2857142857143 400 400)"/>
<rect x="378" y="36" width="44" height="60" rx="3" fill="#8a8a8a" transform="rotate(347.14285714285717 400 400)"/>
<rect x="380" y="38" width="40" height="6" fill="#d8d8d8" opacity=".6" transform="rotate(347.14285714285717 400 400)"/>
<circle cx="400" cy="400" r="296" fill="none" stroke="#2a2a2a" stroke-width="18"/>
<circle cx="400" cy="400" r="286" fill="none" stroke="#9a9a9a" stroke-width="2"/>
<circle cx="400" cy="400" r="250" fill="#161616"/>
<rect x="397" y="138" width="6" height="16" fill="#a8a8a8" transform="rotate(0.0 400 400)"/>
<rect x="397" y="138" width="6" height="16" fill="#a8a8a8" transform="rotate(3.75 400 400)"/>
<rect x="397" y="138" width="6" height="16" fill="#a8a8a8" transform="rotate(7.5 400 400)"/>
<rect x="397" y="138" width="6" height="16" fill="#a8a8a8" transform="rotate(11.25 400 400)"/>
<rect x="397" y="138" width="6" height="16" fill="#a8a8a8" transform="rotate(15.0 400 400)"/>
<rect x="397" y="138" width="6" height="16" fill="#a8a8a8" transform="rotate(18.75 400 400)"/>
<rect x="397" y="138" width="6" height="16" fill="#a8a8a8" transform="rotate(22.5 400 400)"/>
<rect x="397" y="138" width="6" height="16" fill="#a8a8a8" transform="rotate(26.25 400 400)"/>
<rect x="397" y="138" width="6" height="16" fill="#a8a8a8" transform="rotate(30.0 400 400)"/>
<rect x="397" y="138" width="6" height="16" fill="#a8a8a8" transform="rotate(33.75 400 400)"/>
<rect x="397" y="138" width="6" height="16" fill="#a8a8a8" transform="rotate(37.5 400 400)"/>
<rect x="397" y="138" width="6" height="16" fill="#a8a8a8" transform="rotate(41.25 400 400)"/>
<rect x="397" y="138" width="6" height="16" fill="#a8a8a8" transform="rotate(45.0 400 400)"/>
<rect x="397" y="138" width="6" height="16" fill="#a8a8a8" transform="rotate(48.75 400 400)"/>
<rect x="397" y="138" width="6" height="16" fill="#a8a8a8" transform="rotate(52.5 400 400)"/>
<rect x="397" y="138" width="6" height="16" fill="#a8a8a8" transform="rotate(56.25 400 400)"/>
<rect x="397" y="138" width="6" height="16" fill="#a8a8a8" transform="rotate(60.0 400 400)"/>
<rect x="397" y="138" width="6" height="16" fill="#a8a8a8" transform="rotate(63.75 400 400)"/>
<rect x="397" y="138" width="6" height="16" fill="#a8a8a8" transform="rotate(67.5 400 400)"/>
<rect x="397" y="138" width="6" height="16" fill="#a8a8a8" transform="rotate(71.25 400 400)"/>
<rect x="397" y="138" width="6" height="16" fill="#a8a8a8" transform="rotate(75.0 400 400)"/>
<rect x="397" y="138" width="6" height="16" fill="#a8a8a8" transform="rotate(78.75 400 400)"/>
<rect x="397" y="138" width="6" height="16" fill="#a8a8a8" transform="rotate(82.5 400 400)"/>
<rect x="397" y="138" width="6" height="16" fill="#a8a8a8" transform="rotate(86.25 400 400)"/>
<rect x="397" y="138" width="6" height="16" fill="#a8a8a8" transform="rotate(90.0 400 400)"/>
<rect x="397" y="138" width="6" height="16" fill="#a8a8a8" transform="rotate(93.75 400 400)"/>
<rect x="397" y="138" width="6" height="16" fill="#a8a8a8" transform="rotate(97.5 400 400)"/>
<rect x="397" y="138" width="6" height="16" fill="#a8a8a8" transform="rotate(101.25 400 400)"/>
<rect x="397" y="138" width="6" height="16" fill="#a8a8a8" transform="rotate(105.0 400 400)"/>
<rect x="397" y="138" width="6" height="16" fill="#a8a8a8" transform="rotate(108.75 400 400)"/>
<rect x="397" y="138" width="6" height="16" fill="#a8a8a8" transform="rotate(112.5 400 400)"/>
<rect x="397" y="138" width="6" height="16" fill="#a8a8a8" transform="rotate(116.25 400 400)"/>
<rect x="397" y="138" width="6" height="16" fill="#a8a8a8" transform="rotate(120.0 400 400)"/>
<rect x="397" y="138" width="6" height="16" fill="#a8a8a8" transform="rotate(123.75 400 400)"/>
<rect x="397" y="138" width="6" height="16" fill="#a8a8a8" transform="rotate(127.5 400 400)"/>
<rect x="397" y="138" width="6" height="16" fill="#a8a8a8" transform="rotate(131.25 400 400)"/>
<rect x="397" y="138" width="6" height="16" fill="#a8a8a8" transform="rotate(135.0 400 400)"/>
<rect x="397" y="138" width="6" height="16" fill="#a8a8a8" transform="rotate(138.75 400 400)"/>
<rect x="397" y="138" width="6" height="16" fill="#a8a8a8" transform="rotate(142.5 400 400)"/>
<rect x="397" y="138" width="6" height="16" fill="#a8a8a8" transform="rotate(146.25 400 400)"/>
<rect x="397" y="138" width="6" height="16" fill="#a8a8a8" transform="rotate(150.0 400 400)"/>
<rect x="397" y="138" width="6" height="16" fill="#a8a8a8" transform="rotate(153.75 400 400)"/>
<rect x="397" y="138" width="6" height="16" fill="#a8a8a8" transform="rotate(157.5 400 400)"/>
<rect x="397" y="138" width="6" height="16" fill="#a8a8a8" transform="rotate(161.25 400 400)"/>
<rect x="397" y="138" width="6" height="16" fill="#a8a8a8" transform="rotate(165.0 400 400)"/>
<rect x="397" y="138" width="6" height="16" fill="#a8a8a8" transform="rotate(168.75 400 400)"/>
<rect x="397" y="138" width="6" height="16" fill="#a8a8a8" transform="rotate(172.5 400 400)"/>
<rect x="397" y="138" width="6" height="16" fill="#a8a8a8" transform="rotate(176.25 400 400)"/>
<rect x="397" y="138" width="6" height="16" fill="#a8a8a8" transform="rotate(180.0 400 400)"/>
<rect x="397" y="138" width="6" height="16" fill="#a8a8a8" transform="rotate(183.75 400 400)"/>
<rect x="397" y="138" width="6" height="16" fill="#a8a8a8" transform="rotate(187.5 400 400)"/>
<rect x="397" y="138" width="6" height="16" fill="#a8a8a8" transform="rotate(191.25 400 400)"/>
<rect x="397" y="138" width="6" height="16" fill="#a8a8a8" transform="rotate(195.0 400 400)"/>
<rect x="397" y="138" width="6" height="16" fill="#a8a8a8" transform="rotate(198.75 400 400)"/>
<rect x="397" y="138" width="6" height="16" fill="#a8a8a8" transform="rotate(202.5 400 400)"/>
<rect x="397" y="138" width="6" height="16" fill="#a8a8a8" transform="rotate(206.25 400 400)"/>
<rect x="397" y="138" width="6" height="16" fill="#a8a8a8" transform="rotate(210.0 400 400)"/>
<rect x="397" y="138" width="6" height="16" fill="#a8a8a8" transform="rotate(213.75 400 400)"/>
<rect x="397" y="138" width="6" height="16" fill="#a8a8a8" transform="rotate(217.5 400 400)"/>
<rect x="397" y="138" width="6" height="16" fill="#a8a8a8" transform="rotate(221.25 400 400)"/>
<rect x="397" y="138" width="6" height="16" fill="#a8a8a8" transform="rotate(225.0 400 400)"/>
<rect x="397" y="138" width="6" height="16" fill="#a8a8a8" transform="rotate(228.75 400 400)"/>
<rect x="397" y="138" width="6" height="16" fill="#a8a8a8" transform="rotate(232.5 400 400)"/>
<rect x="397" y="138" width="6" height="16" fill="#a8a8a8" transform="rotate(236.25 400 400)"/>
<rect x="397" y="138" width="6" height="16" fill="#a8a8a8" transform="rotate(240.0 400 400)"/>
<rect x="397" y="138" width="6" height="16" fill="#a8a8a8" transform="rotate(243.75 400 400)"/>
<rect x="397" y="138" width="6" height="16" fill="#a8a8a8" transform="rotate(247.5 400 400)"/>
<rect x="397" y="138" width="6" height="16" fill="#a8a8a8" transform="rotate(251.25 400 400)"/>
<rect x="397" y="138" width="6" height="16" fill="#a8a8a8" transform="rotate(255.0 400 400)"/>
<rect x="397" y="138" width="6" height="16" fill="#a8a8a8" transform="rotate(258.75 400 400)"/>
<rect x="397" y="138" width="6" height="16" fill="#a8a8a8" transform="rotate(262.5 400 400)"/>
<rect x="397" y="138" width="6" height="16" fill="#a8a8a8" transform="rotate(266.25 400 400)"/>
<rect x="397" y="138" width="6" height="16" fill="#a8a8a8" transform="rotate(270.0 400 400)"/>
<rect x="397" y="138" width="6" height="16" fill="#a8a8a8" transform="rotate(273.75 400 400)"/>
<rect x="397" y="138" width="6" height="16" fill="#a8a8a8" transform="rotate(277.5 400 400)"/>
<rect x="397" y="138" width="6" height="16" fill="#a8a8a8" transform="rotate(281.25 400 400)"/>
<rect x="397" y="138" width="6" height="16" fill="#a8a8a8" transform="rotate(285.0 400 400)"/>
<rect x="397" y="138" width="6" height="16" fill="#a8a8a8" transform="rotate(288.75 400 400)"/>
<rect x="397" y="138" width="6" height="16" fill="#a8a8a8" transform="rotate(292.5 400 400)"/>
<rect x="397" y="138" width="6" height="16" fill="#a8a8a8" transform="rotate(296.25 400 400)"/>
<rect x="397" y="138" width="6" height="16" fill="#a8a8a8" transform="rotate(300.0 400 400)"/>
<rect x="397" y="138" width="6" height="16" fill="#a8a8a8" transform="rotate(303.75 400 400)"/>
<rect x="397" y="138" width="6" height="16" fill="#a8a8a8" transform="rotate(307.5 400 400)"/>
<rect x="397" y="138" width="6" height="16" fill="#a8a8a8" transform="rotate(311.25 400 400)"/>
<rect x="397" y="138" width="6" height="16" fill="#a8a8a8" transform="rotate(315.0 400 400)"/>
<rect x="397" y="138" width="6" height="16" fill="#a8a8a8" transform="rotate(318.75 400 400)"/>
<rect x="397" y="138" width="6" height="16" fill="#a8a8a8" transform="rotate(322.5 400 400)"/>
<rect x="397" y="138" width="6" height="16" fill="#a8a8a8" transform="rotate(326.25 400 400)"/>
<rect x="397" y="138" width="6" height="16" fill="#a8a8a8" transform="rotate(330.0 400 400)"/>
<rect x="397" y="138" width="6" height="16" fill="#a8a8a8" transform="rotate(333.75 400 400)"/>
<rect x="397" y="138" width="6" height="16" fill="#a8a8a8" transform="rotate(337.5 400 400)"/>
<rect x="397" y="138" width="6" height="16" fill="#a8a8a8" transform="rotate(341.25 400 400)"/>
<rect x="397" y="138" width="6" height="16" fill="#a8a8a8" transform="rotate(345.0 400 400)"/>
<rect x="397" y="138" width="6" height="16" fill="#a8a8a8" transform="rotate(348.75 400 400)"/>
<rect x="397" y="138" width="6" height="16" fill="#a8a8a8" transform="rotate(352.5 400 400)"/>
<rect x="397" y="138" width="6" height="16" fill="#a8a8a8" transform="rotate(356.25 400 400)"/>
<circle cx="400" cy="400" r="244" fill="none" stroke="url(#brassR)" stroke-width="5"/>
<circle cx="400" cy="400" r="232" fill="#0e0e0e"/>
<path d="M388 190 h24 l10 80 h-44 z" fill="#3c3c3c" transform="rotate(0 400 400)"/>
<rect x="394" y="196" width="12" height="60" fill="#bdbdbd" opacity=".55" transform="rotate(0 400 400)"/>
<path d="M388 190 h24 l10 80 h-44 z" fill="#3c3c3c" transform="rotate(30 400 400)"/>
<rect x="394" y="196" width="12" height="60" fill="#bdbdbd" opacity=".55" transform="rotate(30 400 400)"/>
<path d="M388 190 h24 l10 80 h-44 z" fill="#3c3c3c" transform="rotate(60 400 400)"/>
<rect x="394" y="196" width="12" height="60" fill="#bdbdbd" opacity=".55" transform="rotate(60 400 400)"/>
<path d="M388 190 h24 l10 80 h-44 z" fill="#3c3c3c" transform="rotate(90 400 400)"/>
<rect x="394" y="196" width="12" height="60" fill="#bdbdbd" opacity=".55" transform="rotate(90 400 400)"/>
<path d="M388 190 h24 l10 80 h-44 z" fill="#3c3c3c" transform="rotate(120 400 400)"/>
<rect x="394" y="196" width="12" height="60" fill="#bdbdbd" opacity=".55" transform="rotate(120 400 400)"/>
<path d="M388 190 h24 l10 80 h-44 z" fill="#3c3c3c" transform="rotate(150 400 400)"/>
<rect x="394" y="196" width="12" height="60" fill="#bdbdbd" opacity=".55" transform="rotate(150 400 400)"/>
<path d="M388 190 h24 l10 80 h-44 z" fill="#3c3c3c" transform="rotate(180 400 400)"/>
<rect x="394" y="196" width="12" height="60" fill="#bdbdbd" opacity=".55" transform="rotate(180 400 400)"/>
<path d="M388 190 h24 l10 80 h-44 z" fill="#3c3c3c" transform="rotate(210 400 400)"/>
<rect x="394" y="196" width="12" height="60" fill="#bdbdbd" opacity=".55" transform="rotate(210 400 400)"/>
<path d="M388 190 h24 l10 80 h-44 z" fill="#3c3c3c" transform="rotate(240 400 400)"/>
<rect x="394" y="196" width="12" height="60" fill="#bdbdbd" opacity=".55" transform="rotate(240 400 400)"/>
<path d="M388 190 h24 l10 80 h-44 z" fill="#3c3c3c" transform="rotate(270 400 400)"/>
<rect x="394" y="196" width="12" height="60" fill="#bdbdbd" opacity=".55" transform="rotate(270 400 400)"/>
<path d="M388 190 h24 l10 80 h-44 z" fill="#3c3c3c" transform="rotate(300 400 400)"/>
<rect x="394" y="196" width="12" height="60" fill="#bdbdbd" opacity=".55" transform="rotate(300 400 400)"/>
<path d="M388 190 h24 l10 80 h-44 z" fill="#3c3c3c" transform="rotate(330 400 400)"/>
<rect x="394" y="196" width="12" height="60" fill="#bdbdbd" opacity=".55" transform="rotate(330 400 400)"/>
<circle cx="400" cy="232" r="9" fill="#777" stroke="#1a1a1a" stroke-width="3" transform="rotate(22.5 400 400)"/>
<circle cx="400" cy="232" r="9" fill="#777" stroke="#1a1a1a" stroke-width="3" transform="rotate(67.5 400 400)"/>
<circle cx="400" cy="232" r="9" fill="#777" stroke="#1a1a1a" stroke-width="3" transform="rotate(112.5 400 400)"/>
<circle cx="400" cy="232" r="9" fill="#777" stroke="#1a1a1a" stroke-width="3" transform="rotate(157.5 400 400)"/>
<circle cx="400" cy="232" r="9" fill="#777" stroke="#1a1a1a" stroke-width="3" transform="rotate(202.5 400 400)"/>
<circle cx="400" cy="232" r="9" fill="#777" stroke="#1a1a1a" stroke-width="3" transform="rotate(247.5 400 400)"/>
<circle cx="400" cy="232" r="9" fill="#777" stroke="#1a1a1a" stroke-width="3" transform="rotate(292.5 400 400)"/>
<circle cx="400" cy="232" r="9" fill="#777" stroke="#1a1a1a" stroke-width="3" transform="rotate(337.5 400 400)"/>
<circle cx="400" cy="400" r="150" fill="url(#hubG)"/>
<circle cx="400" cy="400" r="130" fill="#2b2b2b"/>
<circle cx="400" cy="400" r="112" fill="#6e6e6e"/>
<circle cx="400" cy="400" r="96" fill="#1b1b1b"/>
<circle cx="400" cy="400" r="74" fill="#9a9a9a"/>
<circle cx="400" cy="400" r="58" fill="#262626"/>
<circle cx="400" cy="400" r="40" fill="#cfcfcf"/>
<circle cx="400" cy="400" r="26" fill="#3a3a3a"/>
<circle cx="400" cy="400" r="12" fill="#e8e8e8"/>
<circle cx="400" cy="296" r="7" fill="#dcdcdc" transform="rotate(0 400 400)"/>
<circle cx="400" cy="296" r="7" fill="#dcdcdc" transform="rotate(60 400 400)"/>
<circle cx="400" cy="296" r="7" fill="#dcdcdc" transform="rotate(120 400 400)"/>
<circle cx="400" cy="296" r="7" fill="#dcdcdc" transform="rotate(180 400 400)"/>
<circle cx="400" cy="296" r="7" fill="#dcdcdc" transform="rotate(240 400 400)"/>
<circle cx="400" cy="296" r="7" fill="#dcdcdc" transform="rotate(300 400 400)"/>
<circle cx="400" cy="400" r="392" fill="url(#shade)"/>
</svg>
